<svg xmlns="http://www.w3.org/2000/svg" width="720" height="392" viewBox="0 0 720 392" font-family="-apple-system, BlinkMacSystemFont, 'Segoe UI', Helvetica, Arial, 'Liberation Sans', sans-serif" role="img" aria-label="Token burn — Claude Code + Codex">
<rect x="0.5" y="0.5" width="719" height="391" rx="14" fill="#0d1117" stroke="#30363d"/>
<g transform="translate(30,27)"><path d="M9 0 C13 5 7 6 10 12 C16 10 17 3 14 -1 C20 3 21 14 12 19 C4 19 1 12 5 6 C6 9 8 8 9 0 Z" fill="#ff7b29"/></g>
<text x="56.0" y="42.0" font-size="21" fill="#e6edf3" font-weight="800" letter-spacing="1.5">TOKEN BURN</text>
<text x="690.0" y="38.0" font-size="13" fill="#8b949e" text-anchor="end">Claude Code + Codex</text>
<text x="690.0" y="53.0" font-size="10.5" fill="#6e7681" text-anchor="end">token burn-rate · all-time</text>
<line x1="30" y1="64" x2="690" y2="64" stroke="#30363d"/>
<text x="30.0" y="116.0" font-size="54" fill="#ff7b29" font-weight="800">257.1M</text>
<text x="216.0" y="116.0" font-size="20" fill="#8b949e" font-weight="600">tokens</text>
<text x="32.0" y="140.0" font-size="12.5" fill="#8b949e">≈ 4,147 × The Great Gatsby  ·  257,136,130 tokens burned</text>
<text x="30.0" y="168.0" font-size="20" fill="#e6edf3" font-weight="700">2,027</text>
<text x="30.0" y="184.0" font-size="10.5" fill="#8b949e">sessions</text>
<text x="140.0" y="168.0" font-size="20" fill="#e6edf3" font-weight="700">133,207</text>
<text x="140.0" y="184.0" font-size="10.5" fill="#8b949e">messages</text>
<line x1="128.0" y1="152" x2="128.0" y2="186" stroke="#30363d" opacity="0.7"/>
<text x="250.0" y="168.0" font-size="20" fill="#e6edf3" font-weight="700">66</text>
<text x="250.0" y="184.0" font-size="10.5" fill="#8b949e">active days</text>
<line x1="238.0" y1="152" x2="238.0" y2="186" stroke="#30363d" opacity="0.7"/>
<text x="360.0" y="168.0" font-size="20" fill="#e6edf3" font-weight="700">6 / 27</text>
<text x="360.0" y="184.0" font-size="10.5" fill="#8b949e">streak cur / max</text>
<line x1="348.0" y1="152" x2="348.0" y2="186" stroke="#30363d" opacity="0.7"/>
<text x="470.0" y="168.0" font-size="20" fill="#e6edf3" font-weight="700">19:00</text>
<text x="470.0" y="184.0" font-size="10.5" fill="#8b949e">peak hour</text>
<line x1="458.0" y1="152" x2="458.0" y2="186" stroke="#30363d" opacity="0.7"/>
<text x="580.0" y="168.0" font-size="20" fill="#e6edf3" font-weight="700">Opus 4.7</text>
<text x="580.0" y="184.0" font-size="10.5" fill="#8b949e">top model</text>
<line x1="568.0" y1="152" x2="568.0" y2="186" stroke="#30363d" opacity="0.7"/>
<text x="70.0" y="218.0" font-size="9.5" fill="#6e7681">Feb</text>
<text x="126.0" y="218.0" font-size="9.5" fill="#6e7681">Mar</text>
<text x="196.0" y="218.0" font-size="9.5" fill="#6e7681">Apr</text>
<text x="252.0" y="218.0" font-size="9.5" fill="#6e7681">May</text>
<text x="50.0" y="247.0" font-size="9" fill="#6e7681" text-anchor="end">Mon</text>
<text x="50.0" y="275.0" font-size="9" fill="#6e7681" text-anchor="end">Wed</text>
<text x="50.0" y="303.0" font-size="9" fill="#6e7681" text-anchor="end">Fri</text>
<g shape-rendering="crispEdges"><rect x="224" y="308" width="11" height="11" rx="2" fill="#9a4a00"/><rect x="238" y="252" width="11" height="11" rx="2" fill="#582f0e"/><rect x="252" y="224" width="11" height="11" rx="2" fill="#582f0e"/><rect x="252" y="266" width="11" height="11" rx="2" fill="#e8590c"/><rect x="252" y="280" width="11" height="11" rx="2" fill="#e8590c"/><rect x="252" y="294" width="11" height="11" rx="2" fill="#e8590c"/><rect x="252" y="308" width="11" height="11" rx="2" fill="#582f0e"/><rect x="266" y="224" width="11" height="11" rx="2" fill="#e8590c"/><rect x="266" y="238" width="11" height="11" rx="2" fill="#ffb454"/><rect x="266" y="252" width="11" height="11" rx="2" fill="#e8590c"/><rect x="266" y="266" width="11" height="11" rx="2" fill="#e8590c"/><rect x="266" y="280" width="11" height="11" rx="2" fill="#e8590c"/><rect x="266" y="294" width="11" height="11" rx="2" fill="#ffb454"/><rect x="266" y="308" width="11" height="11" rx="2" fill="#e8590c"/><rect x="280" y="224" width="11" height="11" rx="2" fill="#ffb454"/><rect x="280" y="238" width="11" height="11" rx="2" fill="#e8590c"/><rect x="280" y="252" width="11" height="11" rx="2" fill="#e8590c"/><rect x="280" y="266" width="11" height="11" rx="2" fill="#ffb454"/><rect x="280" y="280" width="11" height="11" rx="2" fill="#ffb454"/><rect x="280" y="294" width="11" height="11" rx="2" fill="#ffb454"/><rect x="280" y="308" width="11" height="11" rx="2" fill="#ffb454"/><rect x="294" y="224" width="11" height="11" rx="2" fill="#e8590c"/><rect x="294" y="238" width="11" height="11" rx="2" fill="#ffb454"/><rect x="294" y="252" width="11" height="11" rx="2" fill="#ffb454"/><rect x="294" y="266" width="11" height="11" rx="2" fill="#ffb454"/><rect x="294" y="280" width="11" height="11" rx="2" fill="#ffb454"/><rect x="294" y="294" width="11" height="11" rx="2" fill="#ffb454"/><rect x="308" y="224" width="11" height="11" rx="2" fill="#ffb454"/><rect x="308" y="238" width="11" height="11" rx="2" fill="#ffb454"/><rect x="308" y="252" width="11" height="11" rx="2" fill="#ffb454"/><rect x="308" y="266" width="11" height="11" rx="2" fill="#e8590c"/><rect x="308" y="280" width="11" height="11" rx="2" fill="#ffb454"/><rect x="308" y="294" width="11" height="11" rx="2" fill="#e8590c"/><rect x="56" y="252" width="11" height="11" rx="2" fill="#582f0e"/><rect x="84" y="308" width="11" height="11" rx="2" fill="#9a4a00"/><rect x="98" y="224" width="11" height="11" rx="2" fill="#9a4a00"/><rect x="98" y="266" width="11" height="11" rx="2" fill="#582f0e"/><rect x="98" y="280" width="11" height="11" rx="2" fill="#e8590c"/><rect x="98" y="294" width="11" height="11" rx="2" fill="#9a4a00"/><rect x="112" y="238" width="11" height="11" rx="2" fill="#582f0e"/><rect x="168" y="294" width="11" height="11" rx="2" fill="#9a4a00"/><rect x="182" y="224" width="11" height="11" rx="2" fill="#e8590c"/><rect x="182" y="280" width="11" height="11" rx="2" fill="#582f0e"/><rect x="182" y="294" width="11" height="11" rx="2" fill="#582f0e"/><rect x="196" y="224" width="11" height="11" rx="2" fill="#9a4a00"/><rect x="196" y="238" width="11" height="11" rx="2" fill="#9a4a00"/><rect x="196" y="252" width="11" height="11" rx="2" fill="#9a4a00"/><rect x="196" y="266" width="11" height="11" rx="2" fill="#9a4a00"/><rect x="196" y="280" width="11" height="11" rx="2" fill="#582f0e"/><rect x="196" y="294" width="11" height="11" rx="2" fill="#582f0e"/><rect x="196" y="308" width="11" height="11" rx="2" fill="#9a4a00"/><rect x="210" y="224" width="11" height="11" rx="2" fill="#582f0e"/><rect x="210" y="252" width="11" height="11" rx="2" fill="#582f0e"/><rect x="210" y="266" width="11" height="11" rx="2" fill="#9a4a00"/><rect x="210" y="280" width="11" height="11" rx="2" fill="#582f0e"/><rect x="210" y="294" width="11" height="11" rx="2" fill="#582f0e"/><rect x="224" y="238" width="11" height="11" rx="2" fill="#9a4a00"/><rect x="224" y="252" width="11" height="11" rx="2" fill="#9a4a00"/><rect x="224" y="266" width="11" height="11" rx="2" fill="#9a4a00"/><rect x="224" y="280" width="11" height="11" rx="2" fill="#582f0e"/><rect x="224" y="294" width="11" height="11" rx="2" fill="#582f0e"/><rect x="238" y="238" width="11" height="11" rx="2" fill="#9a4a00"/><rect x="238" y="266" width="11" height="11" rx="2" fill="#9a4a00"/><rect x="238" y="280" width="11" height="11" rx="2" fill="#582f0e"/><rect x="252" y="238" width="11" height="11" rx="2" fill="#e8590c"/><rect x="252" y="252" width="11" height="11" rx="2" fill="#9a4a00"/><rect x="56" y="224" width="11" height="11" rx="2" fill="#1b1f24"/><rect x="56" y="238" width="11" height="11" rx="2" fill="#1b1f24"/><rect x="56" y="266" width="11" height="11" rx="2" fill="#1b1f24"/><rect x="56" y="280" width="11" height="11" rx="2" fill="#1b1f24"/><rect x="56" y="294" width="11" height="11" rx="2" fill="#1b1f24"/><rect x="56" y="308" width="11" height="11" rx="2" fill="#1b1f24"/><rect x="70" y="224" width="11" height="11" rx="2" fill="#1b1f24"/><rect x="70" y="238" width="11" height="11" rx="2" fill="#1b1f24"/><rect x="70" y="252" width="11" height="11" rx="2" fill="#1b1f24"/><rect x="70" y="266" width="11" height="11" rx="2" fill="#1b1f24"/><rect x="70" y="280" width="11" height="11" rx="2" fill="#1b1f24"/><rect x="70" y="294" width="11" height="11" rx="2" fill="#1b1f24"/><rect x="70" y="308" width="11" height="11" rx="2" fill="#1b1f24"/><rect x="84" y="224" width="11" height="11" rx="2" fill="#1b1f24"/><rect x="84" y="238" width="11" height="11" rx="2" fill="#1b1f24"/><rect x="84" y="252" width="11" height="11" rx="2" fill="#1b1f24"/><rect x="84" y="266" width="11" height="11" rx="2" fill="#1b1f24"/><rect x="84" y="280" width="11" height="11" rx="2" fill="#1b1f24"/><rect x="84" y="294" width="11" height="11" rx="2" fill="#1b1f24"/><rect x="98" y="238" width="11" height="11" rx="2" fill="#1b1f24"/><rect x="98" y="252" width="11" height="11" rx="2" fill="#1b1f24"/><rect x="98" y="308" width="11" height="11" rx="2" fill="#1b1f24"/><rect x="112" y="224" width="11" height="11" rx="2" fill="#1b1f24"/><rect x="112" y="252" width="11" height="11" rx="2" fill="#1b1f24"/><rect x="112" y="266" width="11" height="11" rx="2" fill="#1b1f24"/><rect x="112" y="280" width="11" height="11" rx="2" fill="#1b1f24"/><rect x="112" y="294" width="11" height="11" rx="2" fill="#1b1f24"/><rect x="112" y="308" width="11" height="11" rx="2" fill="#1b1f24"/><rect x="126" y="224" width="11" height="11" rx="2" fill="#1b1f24"/><rect x="126" y="238" width="11" height="11" rx="2" fill="#1b1f24"/><rect x="126" y="252" width="11" height="11" rx="2" fill="#1b1f24"/><rect x="126" y="266" width="11" height="11" rx="2" fill="#1b1f24"/><rect x="126" y="280" width="11" height="11" rx="2" fill="#1b1f24"/><rect x="126" y="294" width="11" height="11" rx="2" fill="#1b1f24"/><rect x="126" y="308" width="11" height="11" rx="2" fill="#1b1f24"/><rect x="140" y="224" width="11" height="11" rx="2" fill="#1b1f24"/><rect x="140" y="238" width="11" height="11" rx="2" fill="#1b1f24"/><rect x="140" y="252" width="11" height="11" rx="2" fill="#1b1f24"/><rect x="140" y="266" width="11" height="11" rx="2" fill="#1b1f24"/><rect x="140" y="280" width="11" height="11" rx="2" fill="#1b1f24"/><rect x="140" y="294" width="11" height="11" rx="2" fill="#1b1f24"/><rect x="140" y="308" width="11" height="11" rx="2" fill="#1b1f24"/><rect x="154" y="224" width="11" height="11" rx="2" fill="#1b1f24"/><rect x="154" y="238" width="11" height="11" rx="2" fill="#1b1f24"/><rect x="154" y="252" width="11" height="11" rx="2" fill="#1b1f24"/><rect x="154" y="266" width="11" height="11" rx="2" fill="#1b1f24"/><rect x="154" y="280" width="11" height="11" rx="2" fill="#1b1f24"/><rect x="154" y="294" width="11" height="11" rx="2" fill="#1b1f24"/><rect x="154" y="308" width="11" height="11" rx="2" fill="#1b1f24"/><rect x="168" y="224" width="11" height="11" rx="2" fill="#1b1f24"/><rect x="168" y="238" width="11" height="11" rx="2" fill="#1b1f24"/><rect x="168" y="252" width="11" height="11" rx="2" fill="#1b1f24"/><rect x="168" y="266" width="11" height="11" rx="2" fill="#1b1f24"/><rect x="168" y="280" width="11" height="11" rx="2" fill="#1b1f24"/><rect x="168" y="308" width="11" height="11" rx="2" fill="#1b1f24"/><rect x="182" y="238" width="11" height="11" rx="2" fill="#1b1f24"/><rect x="182" y="252" width="11" height="11" rx="2" fill="#1b1f24"/><rect x="182" y="266" width="11" height="11" rx="2" fill="#1b1f24"/><rect x="182" y="308" width="11" height="11" rx="2" fill="#1b1f24"/><rect x="210" y="238" width="11" height="11" rx="2" fill="#1b1f24"/><rect x="210" y="308" width="11" height="11" rx="2" fill="#1b1f24"/><rect x="224" y="224" width="11" height="11" rx="2" fill="#1b1f24"/><rect x="238" y="224" width="11" height="11" rx="2" fill="#1b1f24"/><rect x="238" y="294" width="11" height="11" rx="2" fill="#1b1f24"/><rect x="238" y="308" width="11" height="11" rx="2" fill="#1b1f24"/><rect x="294" y="308" width="11" height="11" rx="2" fill="#1b1f24"/></g>
<text x="347.0" y="222.0" font-size="10" fill="#6e7681" font-weight="700" letter-spacing="0.6">CLAUDE vs CODEX</text>
<path d="M351.00,232 H563.96 L563.96,232 V248.00 L563.96,248.00 H351.00 A4.00,4.00 0 0 1 347.00,244.00 V236.00 A4.00,4.00 0 0 1 351.00,232.00 Z" fill="#e8843c"/>
<path d="M563.96,232 H686.00 A4.00,4.00 0 0 1 690.00,236.00 V244.00 A4.00,4.00 0 0 1 686.00,248.00 H563.96 L563.96,248.00 V232.00 L563.96,232.00 Z" fill="#58a6ff"/>
<rect x="347" y="256" width="9" height="9" rx="2" fill="#e8843c"/>
<text x="360.0" y="265.0" font-size="11" fill="#e6edf3">Claude Code  162.6M · 63%</text>
<rect x="681.0" y="256" width="9" height="9" rx="2" fill="#58a6ff"/>
<text x="677.0" y="265.0" font-size="11" fill="#e6edf3" text-anchor="end">Codex  94.5M · 37%</text>
<text x="347.0" y="292.0" font-size="10" fill="#6e7681" font-weight="700" letter-spacing="0.6">HOTTEST DAY</text>
<text x="347.0" y="311.0" font-size="13" fill="#e6edf3" font-weight="600">May 29 — 36.4M tokens</text>
<text x="347.0" y="342.0" font-size="9.5" fill="#8b949e">Less</text>
<rect x="375" y="333" width="11" height="11" rx="2" fill="#1b1f24"/>
<rect x="389" y="333" width="11" height="11" rx="2" fill="#582f0e"/>
<rect x="403" y="333" width="11" height="11" rx="2" fill="#9a4a00"/>
<rect x="417" y="333" width="11" height="11" rx="2" fill="#e8590c"/>
<rect x="431" y="333" width="11" height="11" rx="2" fill="#ffb454"/>
<text x="447.0" y="342.0" font-size="9.5" fill="#8b949e">More</text>
<text x="30.0" y="374.0" font-size="10.5" fill="#6e7681">Jan 27 2026 → today  ·  66 active days</text>
<text x="690.0" y="374.0" font-size="10.5" fill="#6e7681" text-anchor="end">interactive dashboard → turbokach.github.io/ai-token-burn</text>
</svg>