<svg xmlns="http://www.w3.org/2000/svg" width="720" height="392" viewBox="0 0 720 392" font-family="ui-monospace, 'SF Mono', 'Cascadia Code', Menlo, Consolas, monospace" role="img" aria-label="Token burn — Claude Code + Codex">
<rect x="0.5" y="0.5" width="719" height="391" rx="0" fill="#ffffff" stroke="#000000" stroke-width="2"/>
<g transform="translate(30,27)"><path d="M9 0 C13 5 7 6 10 12 C16 10 17 3 14 -1 C20 3 21 14 12 19 C4 19 1 12 5 6 C6 9 8 8 9 0 Z" fill="#e8590c"/></g>
<text x="56.0" y="42.0" font-size="21" fill="#000000" font-weight="800" letter-spacing="1.5">TOKEN BURN</text>
<text x="690.0" y="38.0" font-size="13" fill="#666666" text-anchor="end">Claude Code + Codex</text>
<text x="690.0" y="53.0" font-size="10.5" fill="#999999" text-anchor="end">token burn-rate · all-time</text>
<line x1="30" y1="64" x2="690" y2="64" stroke="#000000" stroke-width="2"/>
<text x="30.0" y="116.0" font-size="54" fill="#e8590c" font-weight="800">257.7M</text>
<text x="234.0" y="116.0" font-size="20" fill="#666666" font-weight="600">TOKENS</text>
<text x="32.0" y="140.0" font-size="12.5" fill="#666666">≈ 4,157 × The Great Gatsby  ·  257,748,497 tokens burned</text>
<text x="30.0" y="168.0" font-size="20" fill="#000000" font-weight="700">2,029</text>
<text x="30.0" y="184.0" font-size="10.5" fill="#666666">SESSIONS</text>
<text x="140.0" y="168.0" font-size="20" fill="#000000" font-weight="700">133,258</text>
<text x="140.0" y="184.0" font-size="10.5" fill="#666666">MESSAGES</text>
<line x1="128.0" y1="152" x2="128.0" y2="186" stroke="#000000" stroke-width="2" opacity="0.7"/>
<text x="250.0" y="168.0" font-size="20" fill="#000000" font-weight="700">67</text>
<text x="250.0" y="184.0" font-size="10.5" fill="#666666">ACTIVE DAYS</text>
<line x1="238.0" y1="152" x2="238.0" y2="186" stroke="#000000" stroke-width="2" opacity="0.7"/>
<text x="360.0" y="168.0" font-size="20" fill="#000000" font-weight="700">7 / 27</text>
<text x="360.0" y="184.0" font-size="10.5" fill="#666666">STREAK CUR / MAX</text>
<line x1="348.0" y1="152" x2="348.0" y2="186" stroke="#000000" stroke-width="2" opacity="0.7"/>
<text x="470.0" y="168.0" font-size="20" fill="#000000" font-weight="700">19:00</text>
<text x="470.0" y="184.0" font-size="10.5" fill="#666666">PEAK HOUR</text>
<line x1="458.0" y1="152" x2="458.0" y2="186" stroke="#000000" stroke-width="2" opacity="0.7"/>
<text x="580.0" y="168.0" font-size="20" fill="#000000" font-weight="700">Opus 4.7</text>
<text x="580.0" y="184.0" font-size="10.5" fill="#666666">TOP MODEL</text>
<line x1="568.0" y1="152" x2="568.0" y2="186" stroke="#000000" stroke-width="2" opacity="0.7"/>
<text x="70.0" y="218.0" font-size="9.5" fill="#999999">FEB</text>
<text x="126.0" y="218.0" font-size="9.5" fill="#999999">MAR</text>
<text x="182.0" y="218.0" font-size="9.5" fill="#999999">APR</text>
<text x="238.0" y="218.0" font-size="9.5" fill="#999999">MAY</text>
<text x="308.0" y="218.0" font-size="9.5" fill="#999999">JUN</text>
<text x="50.0" y="247.0" font-size="9" fill="#999999" text-anchor="end">MON</text>
<text x="50.0" y="275.0" font-size="9" fill="#999999" text-anchor="end">WED</text>
<text x="50.0" y="303.0" font-size="9" fill="#999999" text-anchor="end">FRI</text>
<g shape-rendering="crispEdges"><rect x="224" y="308" width="11" height="11" rx="0" fill="#555555"/><rect x="238" y="252" width="11" height="11" rx="0" fill="#cccccc"/><rect x="252" y="224" width="11" height="11" rx="0" fill="#cccccc"/><rect x="252" y="266" width="11" height="11" rx="0" fill="#999999"/><rect x="252" y="280" width="11" height="11" rx="0" fill="#555555"/><rect x="252" y="294" width="11" height="11" rx="0" fill="#555555"/><rect x="252" y="308" width="11" height="11" rx="0" fill="#cccccc"/><rect x="266" y="224" width="11" height="11" rx="0" fill="#555555"/><rect x="266" y="238" width="11" height="11" rx="0" fill="#111111"/><rect x="266" y="252" width="11" height="11" rx="0" fill="#555555"/><rect x="266" y="266" width="11" height="11" rx="0" fill="#555555"/><rect x="266" y="280" width="11" height="11" rx="0" fill="#555555"/><rect x="266" y="294" width="11" height="11" rx="0" fill="#555555"/><rect x="266" y="308" width="11" height="11" rx="0" fill="#555555"/><rect x="280" y="224" width="11" height="11" rx="0" fill="#111111"/><rect x="280" y="238" width="11" height="11" rx="0" fill="#555555"/><rect x="280" y="252" width="11" height="11" rx="0" fill="#555555"/><rect x="280" y="266" width="11" height="11" rx="0" fill="#111111"/><rect x="280" y="280" width="11" height="11" rx="0" fill="#111111"/><rect x="280" y="294" width="11" height="11" rx="0" fill="#111111"/><rect x="280" y="308" width="11" height="11" rx="0" fill="#111111"/><rect x="294" y="224" width="11" height="11" rx="0" fill="#555555"/><rect x="294" y="238" width="11" height="11" rx="0" fill="#111111"/><rect x="294" y="252" width="11" height="11" rx="0" fill="#111111"/><rect x="294" y="266" width="11" height="11" rx="0" fill="#111111"/><rect x="294" y="280" width="11" height="11" rx="0" fill="#111111"/><rect x="294" y="294" width="11" height="11" rx="0" fill="#111111"/><rect x="308" y="224" width="11" height="11" rx="0" fill="#111111"/><rect x="308" y="238" width="11" height="11" rx="0" fill="#111111"/><rect x="308" y="252" width="11" height="11" rx="0" fill="#111111"/><rect x="308" y="266" width="11" height="11" rx="0" fill="#555555"/><rect x="308" y="280" width="11" height="11" rx="0" fill="#111111"/><rect x="308" y="294" width="11" height="11" rx="0" fill="#111111"/><rect x="308" y="308" width="11" height="11" rx="0" fill="#cccccc"/><rect x="56" y="252" width="11" height="11" rx="0" fill="#cccccc"/><rect x="84" y="308" width="11" height="11" rx="0" fill="#555555"/><rect x="98" y="224" width="11" height="11" rx="0" fill="#999999"/><rect x="98" y="266" width="11" height="11" rx="0" fill="#cccccc"/><rect x="98" y="280" width="11" height="11" rx="0" fill="#555555"/><rect x="98" y="294" width="11" height="11" rx="0" fill="#999999"/><rect x="112" y="238" width="11" height="11" rx="0" fill="#cccccc"/><rect x="168" y="294" width="11" height="11" rx="0" fill="#999999"/><rect x="182" y="224" width="11" height="11" rx="0" fill="#555555"/><rect x="182" y="280" width="11" height="11" rx="0" fill="#cccccc"/><rect x="182" y="294" width="11" height="11" rx="0" fill="#cccccc"/><rect x="196" y="224" width="11" height="11" rx="0" fill="#999999"/><rect x="196" y="238" width="11" height="11" rx="0" fill="#999999"/><rect x="196" y="252" width="11" height="11" rx="0" fill="#999999"/><rect x="196" y="266" width="11" height="11" rx="0" fill="#999999"/><rect x="196" y="280" width="11" height="11" rx="0" fill="#cccccc"/><rect x="196" y="294" width="11" height="11" rx="0" fill="#cccccc"/><rect x="196" y="308" width="11" height="11" rx="0" fill="#999999"/><rect x="210" y="224" width="11" height="11" rx="0" fill="#cccccc"/><rect x="210" y="252" width="11" height="11" rx="0" fill="#999999"/><rect x="210" y="266" width="11" height="11" rx="0" fill="#999999"/><rect x="210" y="280" width="11" height="11" rx="0" fill="#cccccc"/><rect x="210" y="294" width="11" height="11" rx="0" fill="#cccccc"/><rect x="224" y="238" width="11" height="11" rx="0" fill="#999999"/><rect x="224" y="252" width="11" height="11" rx="0" fill="#999999"/><rect x="224" y="266" width="11" height="11" rx="0" fill="#999999"/><rect x="224" y="280" width="11" height="11" rx="0" fill="#cccccc"/><rect x="224" y="294" width="11" height="11" rx="0" fill="#cccccc"/><rect x="238" y="238" width="11" height="11" rx="0" fill="#999999"/><rect x="238" y="266" width="11" height="11" rx="0" fill="#999999"/><rect x="238" y="280" width="11" height="11" rx="0" fill="#cccccc"/><rect x="252" y="238" width="11" height="11" rx="0" fill="#555555"/><rect x="252" y="252" width="11" height="11" rx="0" fill="#999999"/><rect x="56" y="224" width="11" height="11" rx="0" fill="#eeeeee"/><rect x="56" y="238" width="11" height="11" rx="0" fill="#eeeeee"/><rect x="56" y="266" width="11" height="11" rx="0" fill="#eeeeee"/><rect x="56" y="280" width="11" height="11" rx="0" fill="#eeeeee"/><rect x="56" y="294" width="11" height="11" rx="0" fill="#eeeeee"/><rect x="56" y="308" width="11" height="11" rx="0" fill="#eeeeee"/><rect x="70" y="224" width="11" height="11" rx="0" fill="#eeeeee"/><rect x="70" y="238" width="11" height="11" rx="0" fill="#eeeeee"/><rect x="70" y="252" width="11" height="11" rx="0" fill="#eeeeee"/><rect x="70" y="266" width="11" height="11" rx="0" fill="#eeeeee"/><rect x="70" y="280" width="11" height="11" rx="0" fill="#eeeeee"/><rect x="70" y="294" width="11" height="11" rx="0" fill="#eeeeee"/><rect x="70" y="308" width="11" height="11" rx="0" fill="#eeeeee"/><rect x="84" y="224" width="11" height="11" rx="0" fill="#eeeeee"/><rect x="84" y="238" width="11" height="11" rx="0" fill="#eeeeee"/><rect x="84" y="252" width="11" height="11" rx="0" fill="#eeeeee"/><rect x="84" y="266" width="11" height="11" rx="0" fill="#eeeeee"/><rect x="84" y="280" width="11" height="11" rx="0" fill="#eeeeee"/><rect x="84" y="294" width="11" height="11" rx="0" fill="#eeeeee"/><rect x="98" y="238" width="11" height="11" rx="0" fill="#eeeeee"/><rect x="98" y="252" width="11" height="11" rx="0" fill="#eeeeee"/><rect x="98" y="308" width="11" height="11" rx="0" fill="#eeeeee"/><rect x="112" y="224" width="11" height="11" rx="0" fill="#eeeeee"/><rect x="112" y="252" width="11" height="11" rx="0" fill="#eeeeee"/><rect x="112" y="266" width="11" height="11" rx="0" fill="#eeeeee"/><rect x="112" y="280" width="11" height="11" rx="0" fill="#eeeeee"/><rect x="112" y="294" width="11" height="11" rx="0" fill="#eeeeee"/><rect x="112" y="308" width="11" height="11" rx="0" fill="#eeeeee"/><rect x="126" y="224" width="11" height="11" rx="0" fill="#eeeeee"/><rect x="126" y="238" width="11" height="11" rx="0" fill="#eeeeee"/><rect x="126" y="252" width="11" height="11" rx="0" fill="#eeeeee"/><rect x="126" y="266" width="11" height="11" rx="0" fill="#eeeeee"/><rect x="126" y="280" width="11" height="11" rx="0" fill="#eeeeee"/><rect x="126" y="294" width="11" height="11" rx="0" fill="#eeeeee"/><rect x="126" y="308" width="11" height="11" rx="0" fill="#eeeeee"/><rect x="140" y="224" width="11" height="11" rx="0" fill="#eeeeee"/><rect x="140" y="238" width="11" height="11" rx="0" fill="#eeeeee"/><rect x="140" y="252" width="11" height="11" rx="0" fill="#eeeeee"/><rect x="140" y="266" width="11" height="11" rx="0" fill="#eeeeee"/><rect x="140" y="280" width="11" height="11" rx="0" fill="#eeeeee"/><rect x="140" y="294" width="11" height="11" rx="0" fill="#eeeeee"/><rect x="140" y="308" width="11" height="11" rx="0" fill="#eeeeee"/><rect x="154" y="224" width="11" height="11" rx="0" fill="#eeeeee"/><rect x="154" y="238" width="11" height="11" rx="0" fill="#eeeeee"/><rect x="154" y="252" width="11" height="11" rx="0" fill="#eeeeee"/><rect x="154" y="266" width="11" height="11" rx="0" fill="#eeeeee"/><rect x="154" y="280" width="11" height="11" rx="0" fill="#eeeeee"/><rect x="154" y="294" width="11" height="11" rx="0" fill="#eeeeee"/><rect x="154" y="308" width="11" height="11" rx="0" fill="#eeeeee"/><rect x="168" y="224" width="11" height="11" rx="0" fill="#eeeeee"/><rect x="168" y="238" width="11" height="11" rx="0" fill="#eeeeee"/><rect x="168" y="252" width="11" height="11" rx="0" fill="#eeeeee"/><rect x="168" y="266" width="11" height="11" rx="0" fill="#eeeeee"/><rect x="168" y="280" width="11" height="11" rx="0" fill="#eeeeee"/><rect x="168" y="308" width="11" height="11" rx="0" fill="#eeeeee"/><rect x="182" y="238" width="11" height="11" rx="0" fill="#eeeeee"/><rect x="182" y="252" width="11" height="11" rx="0" fill="#eeeeee"/><rect x="182" y="266" width="11" height="11" rx="0" fill="#eeeeee"/><rect x="182" y="308" width="11" height="11" rx="0" fill="#eeeeee"/><rect x="210" y="238" width="11" height="11" rx="0" fill="#eeeeee"/><rect x="210" y="308" width="11" height="11" rx="0" fill="#eeeeee"/><rect x="224" y="224" width="11" height="11" rx="0" fill="#eeeeee"/><rect x="238" y="224" width="11" height="11" rx="0" fill="#eeeeee"/><rect x="238" y="294" width="11" height="11" rx="0" fill="#eeeeee"/><rect x="238" y="308" width="11" height="11" rx="0" fill="#eeeeee"/><rect x="294" y="308" width="11" height="11" rx="0" fill="#eeeeee"/></g>
<text x="347.0" y="222.0" font-size="10" fill="#999999" font-weight="700" letter-spacing="0.6">CLAUDE vs CODEX</text>
<path d="M347.00,232 H563.97 L563.97,232 V248.00 L563.97,248.00 H347.00 L347.00,248.00 V232.00 L347.00,232.00 Z" fill="#1a1a1a"/>
<path d="M563.97,232 H690.00 L690.00,232 V248.00 L690.00,248.00 H563.97 L563.97,248.00 V232.00 L563.97,232.00 Z" fill="#9a9a9a"/>
<rect x="347" y="256" width="9" height="9" rx="0" fill="#1a1a1a"/>
<text x="360.0" y="265.0" font-size="11" fill="#000000">Claude Code  163.0M · 63%</text>
<rect x="681.0" y="256" width="9" height="9" rx="0" fill="#9a9a9a"/>
<text x="677.0" y="265.0" font-size="11" fill="#000000" text-anchor="end">Codex  94.7M · 37%</text>
<text x="347.0" y="292.0" font-size="10" fill="#999999" font-weight="700" letter-spacing="0.6">HOTTEST DAY</text>
<text x="347.0" y="311.0" font-size="13" fill="#000000" font-weight="600">May 29 — 36.4M tokens</text>
<text x="347.0" y="342.0" font-size="9.5" fill="#666666">LESS</text>
<rect x="375" y="333" width="11" height="11" rx="0" fill="#eeeeee"/>
<rect x="389" y="333" width="11" height="11" rx="0" fill="#cccccc"/>
<rect x="403" y="333" width="11" height="11" rx="0" fill="#999999"/>
<rect x="417" y="333" width="11" height="11" rx="0" fill="#555555"/>
<rect x="431" y="333" width="11" height="11" rx="0" fill="#111111"/>
<text x="447.0" y="342.0" font-size="9.5" fill="#666666">MORE</text>
<text x="30.0" y="374.0" font-size="10.5" fill="#999999">Jan 27 2026 → today  ·  67 active days</text>
<text x="690.0" y="374.0" font-size="10.5" fill="#999999" text-anchor="end">interactive dashboard → turbokach.github.io/ai-token-burn</text>
</svg>